<svg width="50" height="50" viewBox="0 0 50 50" fill="none" xmlns="http://www.w3.org/2000/svg">
<rect width="50" height="50" rx="4" fill="#F8F9FB"/>
<path d="M17 21.8V33.8C17 34.2243 17.1686 34.6313 17.4686 34.9314C17.7687 35.2314 18.1757 35.4 18.6 35.4H20.2C20.4122 35.4 20.6157 35.4843 20.7657 35.6343C20.9157 35.7843 21 35.9878 21 36.2C21 36.4122 20.9157 36.6157 20.7657 36.7657C20.6157 36.9157 20.4122 37 20.2 37H18.6C17.7513 37 16.9374 36.6629 16.3373 36.0627C15.7371 35.4626 15.4 34.6487 15.4 33.8V20.6688L23.0688 13H31.4C32.2487 13 33.0626 13.3371 33.6627 13.9373C34.2629 14.5374 34.6 15.3513 34.6 16.2V28.2C34.6 28.4122 34.5157 28.6157 34.3657 28.7657C34.2157 28.9157 34.0122 29 33.8 29C33.5878 29 33.3843 28.9157 33.2343 28.7657C33.0843 28.6157 33 28.4122 33 28.2V16.2C33 15.7757 32.8314 15.3687 32.5314 15.0686C32.2313 14.7686 31.8243 14.6 31.4 14.6H24.2V19.4C24.2 20.0365 23.9471 20.647 23.4971 21.0971C23.047 21.5471 22.4365 21.8 21.8 21.8H17ZM22.6 15.7312L18.1312 20.2H21.8C22.0122 20.2 22.2157 20.1157 22.3657 19.9657C22.5157 19.8157 22.6 19.6122 22.6 19.4V15.7312V15.7312ZM24.1072 30.7312C24.9552 30.7312 25.6368 30.92 26.1496 31.2968C26.6616 31.6744 26.9184 32.3664 26.9184 33.3728C26.9184 34.3648 26.6688 35.0608 26.1688 35.464C25.6688 35.8672 25.0208 36.0688 24.2248 36.0688H22.6V30.7312H24.1072ZM23.8808 31.6472V35.1528H24.3024C24.724 35.1528 25.044 35.0224 25.2624 34.7632C25.4816 34.504 25.5904 34.0408 25.5904 33.3728C25.5904 32.916 25.536 32.5616 25.4272 32.3104C25.3176 32.0584 25.1688 31.8848 24.9816 31.7904C24.7944 31.6944 24.5624 31.6472 24.2864 31.6472H23.8808V31.6472ZM29.8704 30.6C30.6408 30.6 31.2408 30.844 31.6704 31.332C32.1 31.82 32.3144 32.508 32.3144 33.396C32.3144 33.9768 32.2168 34.4768 32.0216 34.8984C31.8264 35.3192 31.5456 35.6416 31.1784 35.8648C30.8112 36.0888 30.3752 36.2 29.8704 36.2C29.3656 36.2 28.9304 36.0896 28.5664 35.8688C28.1958 35.6414 27.903 35.3069 27.7264 34.9096C27.5312 34.4912 27.4336 33.9864 27.4336 33.396C27.4336 32.8208 27.5312 32.3232 27.7264 31.9016C27.9216 31.4808 28.2016 31.1584 28.5664 30.9352C28.9304 30.7112 29.3656 30.6 29.8704 30.6V30.6ZM29.8704 31.524C29.5008 31.524 29.2264 31.672 29.0464 31.9672C28.8672 32.2632 28.7768 32.7392 28.7768 33.396C28.7768 34.0536 28.868 34.5312 29.0504 34.8288C29.2328 35.1264 29.5064 35.276 29.8704 35.276C30.2448 35.276 30.5224 35.128 30.7024 34.8328C30.8816 34.5368 30.9712 34.0584 30.9712 33.396C30.9712 32.7336 30.88 32.256 30.6984 31.964C30.516 31.6704 30.24 31.524 29.8704 31.524V31.524ZM35.2896 30.6C35.628 30.6 35.9296 30.6488 36.192 30.7464C36.4544 30.844 36.704 30.9904 36.9376 31.1856L36.3288 31.9016C36.1672 31.7784 36.0088 31.6856 35.852 31.6248C35.6927 31.5625 35.523 31.531 35.352 31.532C34.988 31.532 34.7 31.684 34.4896 31.9864C34.2784 32.2896 34.1728 32.7568 34.1728 33.3888C34.1728 34.0096 34.2784 34.4704 34.4896 34.7712C34.7 35.0712 34.9936 35.2216 35.368 35.2216C35.5656 35.2216 35.7456 35.1848 35.9064 35.1096C36.068 35.0352 36.2424 34.9288 36.4296 34.7904L37 35.5144C36.7968 35.7144 36.5512 35.8792 36.2624 36.0072C35.9728 36.1352 35.6544 36.2 35.3056 36.2C34.8056 36.2 34.3712 36.092 34.0016 35.8768C33.632 35.6608 33.344 35.3408 33.1384 34.9168C32.9328 34.4936 32.8296 33.984 32.8296 33.3888C32.8296 32.808 32.9352 32.3072 33.1464 31.8864C33.3568 31.4656 33.6488 31.1456 34.0208 30.9272C34.3928 30.7088 34.816 30.6 35.2896 30.6V30.6Z" fill="#2892D7"/>
</svg>
