<svg width="20" height="21" viewBox="0 0 20 21" fill="none" xmlns="http://www.w3.org/2000/svg">
<path d="M20 5.59713C20.0008 5.46553 19.9755 5.33506 19.9258 5.21323C19.876 5.09139 19.8027 4.98057 19.71 4.88713L15.47 0.647133C15.3766 0.554452 15.2657 0.481127 15.1439 0.431362C15.0221 0.381598 14.8916 0.356373 14.76 0.357133C14.6284 0.356373 14.4979 0.381598 14.3761 0.431362C14.2543 0.481127 14.1434 0.554452 14.05 0.647133L11.22 3.47713L0.290001 14.4071C0.19732 14.5006 0.123995 14.6114 0.0742302 14.7332C0.0244656 14.8551 -0.000759438 14.9855 1.4555e-06 15.1171V19.3571C1.4555e-06 19.6224 0.105358 19.8767 0.292895 20.0642C0.480431 20.2518 0.734785 20.3571 1 20.3571H5.24C5.37993 20.3647 5.51989 20.3429 5.65082 20.2929C5.78175 20.2429 5.90071 20.166 6 20.0671L16.87 9.13713L19.71 6.35713C19.8013 6.26021 19.8756 6.14867 19.93 6.02713C19.9396 5.94742 19.9396 5.86684 19.93 5.78713C19.9347 5.74058 19.9347 5.69368 19.93 5.64713L20 5.59713ZM4.83 18.3571H2V15.5271L11.93 5.59713L14.76 8.42713L4.83 18.3571ZM16.17 7.01713L13.34 4.18713L14.76 2.77713L17.58 5.59713L16.17 7.01713Z" fill="#212121"/>
</svg>