
<svg width="133" height="42" viewBox="0 0 133 42" fill="none" xmlns="http://www.w3.org/2000/svg">
<path d="M19.3818 23.7379C18.9944 23.3763 18.5294 23.1696 18.0645 22.9372C17.9612 22.7822 17.8062 22.7305 17.6512 22.6789C17.1346 22.4464 16.618 22.2397 16.1014 22.0073C14.9907 21.4907 13.8025 21.129 12.6401 20.7416C11.8394 20.4058 11.0645 20.0958 10.2638 19.76C8.81727 19.0368 7.44827 18.2102 6.33757 16.9962C5.71764 16.3246 5.22686 15.5755 4.73609 14.7231C4.73609 14.8523 4.71026 14.8781 4.73609 14.9298C5.56266 18.2361 7.39661 20.8707 10.1604 22.8597C10.8579 23.4021 11.6069 23.8671 12.4335 24.2287C13.6217 24.8744 14.939 25.3136 16.1014 26.0368C16.6438 26.4501 17.1863 26.8375 17.7287 27.2508C18.297 27.7933 18.8394 28.3615 19.3302 29.0073C19.4077 29.1364 19.511 29.2914 19.5885 29.4206C20.9058 31.487 21.3449 33.7084 20.6992 36.1106C20.2859 37.5829 19.4852 38.8228 18.452 39.9593C17.832 40.4759 17.2379 40.9925 16.618 41.5091C16.3339 41.6124 16.1014 41.7674 15.8948 41.9999C16.1531 41.8966 16.463 41.8707 16.6955 41.6641C17.4704 41.38 18.1678 40.9409 18.8136 40.3984C19.9759 39.5202 20.9317 38.4353 21.7066 37.2213C23.1272 34.9482 23.8246 32.5202 23.2822 29.8597C22.7914 27.3025 21.5258 25.2361 19.3818 23.7379Z" fill="white"/>
<path d="M18.891 35.6974C17.9353 34.6642 16.8763 33.9926 15.4556 33.9926C14.2674 33.941 13.2859 34.4059 12.356 35.0517C11.2969 35.6199 10.2379 36.1882 8.99803 36.2657C8.61058 36.1882 8.48143 35.8782 8.35227 35.5683C8.19729 35.1808 8.17146 34.7417 8.1198 34.3284C8.09397 34.0701 7.99065 33.9151 7.70652 33.8893C7.57737 33.8893 7.42239 33.8376 7.31906 33.8118C6.98327 33.6827 6.93161 33.4244 7.21574 33.1919C7.29323 33.1144 7.39656 33.0886 7.55154 33.0111C7.39656 32.9594 7.29323 32.9078 7.16408 32.8819C6.31168 32.6236 6.31168 32.572 6.64748 31.7712C6.82829 31.3579 6.72497 31.0738 6.28585 30.893C5.8984 30.738 5.51095 30.6347 5.12349 30.5055C4.58106 30.3247 4.5294 30.1956 4.86519 29.7306C5.43346 28.9041 5.95006 28.0775 6.28585 27.1476C6.4925 26.631 6.4925 26.1402 6.23419 25.5978C5.82091 24.7196 5.43346 23.8413 5.14932 22.8856C4.81353 21.7233 4.65855 20.5351 4.58106 19.1919C4.50357 19.3727 4.45191 19.4502 4.45191 19.5535C4.27109 20.7417 4.27109 21.9299 4.50357 23.1439C4.68438 24.1255 5.14932 25.0037 5.56261 25.9078C5.74342 26.3469 5.74342 26.7085 5.56261 27.1218C5.20098 27.9484 4.65855 28.6974 4.16777 29.4723C3.72866 30.1439 3.90947 30.738 4.60689 31.0738C5.02017 31.2805 5.45929 31.4354 5.92423 31.4613C5.92423 31.5129 5.92423 31.5646 5.8984 31.5904C5.43346 32.4686 5.45929 32.5203 6.23419 33.1144C6.36335 33.2177 6.36334 33.2694 6.33751 33.4244C6.20836 33.8635 6.38918 34.2509 6.77663 34.3543C7.42239 34.5351 7.52571 34.9742 7.6032 35.5166C7.62903 35.6716 7.68069 35.8007 7.73235 35.9557C7.96482 36.4465 8.24895 36.8598 8.81722 36.9373C8.99803 37.0406 9.20467 37.0148 9.38548 36.9889C10.6253 36.8081 11.7102 36.2915 12.7434 35.6458C13.4667 35.2067 14.2157 34.845 15.0423 34.6642C16.4113 34.5351 17.6512 34.845 18.736 35.7233C18.736 35.7233 18.7877 35.6974 18.891 35.6974Z" fill="white"/>
<path d="M7.91344 26.915C8.27506 26.8375 8.66251 26.76 8.97248 26.5017C9.41159 26.2692 9.56657 25.8818 9.64406 25.3394C9.28244 25.6493 8.97248 25.9076 8.63668 26.0368C8.32672 26.0368 8.04259 26.0368 7.73262 26.0109C7.65513 26.0109 7.52598 25.9593 7.50015 26.0626C7.34517 26.3984 7.06104 26.6567 6.67358 26.915C7.16436 26.9408 7.55181 26.9925 7.91344 26.915Z" fill="white"/>
<path fill-rule="evenodd" clip-rule="evenodd" d="M18.0646 9.35055C18.6845 8.03321 19.2011 6.71587 18.917 5.01107C18.8912 4.93358 18.8395 4.85609 18.762 4.85609H18.7362C18.6587 4.85609 18.607 4.90775 18.5554 4.95941C18.3487 5.34686 18.1937 5.73432 18.0388 6.09594C17.8321 6.56089 17.6255 6.97417 17.4188 7.38745C17.238 7.72325 17.0314 8.03321 16.8506 8.34317C16.6956 8.57565 16.5406 8.83395 16.3856 9.06642C16.2823 9.27306 16.179 9.32472 16.1532 9.32472C16.0757 9.32472 15.7915 9.04059 15.5332 7.77491C15.4041 7.12915 15.3266 6.53506 15.3266 6.38007C15.2491 4.54613 15.9207 2.76384 17.2122 1.44649C17.393 1.26568 19.1495 0.154982 19.7177 0C19.6661 1.03321 19.9502 1.98893 20.2085 2.91882C20.4926 3.9262 20.7768 4.88192 20.6476 5.8893C20.441 7.18081 19.6144 9.16974 18.0646 9.35055Z" fill="white"/>
<path fill-rule="evenodd" clip-rule="evenodd" d="M23.463 13.8453C23.3597 13.8453 23.2822 13.8453 23.1789 13.8194C24.1346 13.0445 25.3228 10.539 25.3744 10.1515C25.3744 10.0741 25.3486 9.99656 25.2711 9.97073C25.2453 9.9449 25.1936 9.9449 25.1678 9.9449C25.1161 9.9449 25.0903 9.9449 25.0645 9.97073C24.5479 10.3324 24.1346 10.7715 23.7213 11.2106C23.1272 11.8047 22.5848 12.3988 21.8357 12.7346C21.629 12.8379 21.4482 12.8896 21.3191 12.8896C21.1899 12.8896 21.1383 12.8379 21.1124 12.8121C20.88 12.5279 21.0349 11.6755 21.0866 11.2881C21.1641 10.8748 21.2416 10.5132 21.2933 10.384C21.8099 9.04084 22.6106 7.87848 23.4888 7.15524C24.0571 6.69029 26.0202 5.57959 27.1309 5.57959C27.3892 5.57959 27.5958 5.65708 27.6992 5.78623C27.8541 5.99287 27.8541 6.3545 27.6992 6.8711C27.5183 7.49103 27.415 8.16262 27.3375 8.80837C27.1826 9.9449 27.0534 11.1073 26.356 11.9855C25.891 12.5538 24.7545 13.8453 23.463 13.8453Z" fill="white"/>
<path fill-rule="evenodd" clip-rule="evenodd" d="M12.0721 10.7969C11.2197 10.7969 9.6182 8.85967 9.33407 8.36889C8.2492 6.63827 8.32669 4.59767 8.58499 3.20284C8.66248 2.76373 8.73997 2.35044 9.04994 2.01465C9.41156 3.09952 10.1865 3.64195 10.9097 4.08107C11.0647 4.18439 11.2455 4.28771 11.4263 4.3652C12.1237 4.77849 12.8728 5.19177 13.3636 5.88919C14.061 6.89657 14.3968 8.36889 13.6736 9.58291C13.5702 9.04048 13.4153 8.57553 13.1569 8.16225L13.1053 8.05893C12.7953 7.56815 12.4337 6.99989 11.8396 6.79325H11.7621C11.7105 6.79325 11.6846 6.81908 11.633 6.84491C11.5813 6.89657 11.5555 6.94823 11.5555 7.02572C11.6071 7.36151 11.7879 7.80063 11.9946 8.23974C12.3562 9.09214 12.7695 10.0479 12.382 10.6161C12.3045 10.7194 12.2012 10.7969 12.0721 10.7969Z" fill="white"/>
<path fill-rule="evenodd" clip-rule="evenodd" d="M26.6403 21.7231C26.5886 21.7231 26.4595 21.7231 26.4337 21.3098C26.4078 21.0515 26.4078 20.7932 26.4337 20.5091C26.4337 19.9667 26.4595 19.3984 26.2787 18.8301C26.2529 18.7785 26.227 18.7268 26.1754 18.701C26.1495 18.701 26.1237 18.6751 26.0979 18.6751C26.072 18.6751 26.0462 18.6751 26.0204 18.6751C25.2455 18.9851 25.1938 19.605 25.1422 20.1733C25.1422 20.2508 25.1422 20.3541 25.1163 20.4316C25.0905 20.6124 25.0388 20.7416 24.9613 20.7932C24.9355 20.7932 24.9097 20.8191 24.8839 20.8191C24.7805 20.8191 24.5739 20.7157 24.3931 20.4574C24.2123 20.225 24.1348 19.7083 24.1606 19.0884C24.2123 18.0552 24.6514 16.867 25.2196 16.1696C25.5554 15.7821 25.9946 15.4464 26.4078 15.1106C27.2602 14.4648 28.1385 13.7932 28.2676 12.6309C29.12 13.3283 29.43 14.3615 29.5333 15.1364C29.7916 16.9703 29.1717 19.2951 28.0868 20.5607C27.6477 21.129 26.9761 21.7231 26.6403 21.7231Z" fill="white"/>
<path fill-rule="evenodd" clip-rule="evenodd" d="M8.89487 12.3467C7.99081 11.6493 6.80262 11.4685 5.69192 10.7194C7.11258 10.5386 8.24912 10.8485 9.35982 11.391C9.15317 10.0736 8.04247 9.24705 6.85428 8.88542C5.40779 8.44631 4.4779 9.16956 3.18638 9.66033C2.12734 10.0736 1.0683 9.86697 0.00926307 9.55701C-0.145718 10.3319 1.68823 11.9334 2.20483 12.45C3.16055 13.4315 4.19377 13.6899 5.48528 13.9482C6.67347 14.1806 7.75834 13.8448 8.81738 13.3799C9.64395 12.9924 9.61812 12.8891 8.89487 12.3467Z" fill="white"/>
<path fill-rule="evenodd" clip-rule="evenodd" d="M33.6144 22.9114C33.5628 22.2915 33.5628 21.6716 33.6403 20.9742C33.6919 20.4576 33.7694 19.941 33.8211 19.4244L33.8986 18.7528C33.8986 18.6753 33.8727 18.5978 33.7953 18.572C33.7694 18.5461 33.7178 18.5461 33.6919 18.5461C33.6661 18.5461 33.6144 18.5461 33.5886 18.572C32.762 19.1144 32.2713 19.9926 31.7288 21.9299C31.548 21.8007 31.4964 21.5683 31.4705 21.2583C31.4705 21.1808 31.4447 21.1033 31.4447 21.0258C31.2381 19.7343 31.6255 18.417 32.5296 17.4613C32.7879 17.1771 33.1237 16.9446 33.4853 16.738C33.8727 16.5055 34.2602 16.2731 34.5443 15.9114C34.6993 15.7565 34.8285 15.4982 34.9576 15.2399C35.1384 14.8782 35.3451 14.4649 35.6034 14.31C35.6809 14.2841 35.7325 14.2583 35.81 14.2583C35.8875 14.2583 35.965 14.2841 36.0425 14.3358C36.4558 14.5424 36.6366 15.6531 36.7141 16.1181L36.7399 16.2472C37.1015 18.5203 36.8174 20.1734 35.81 21.2583C35.7325 21.3616 35.2418 21.6974 34.8285 22.0332C34.2085 22.4465 33.8211 22.7048 33.6144 22.9114Z" fill="white"/>
<path fill-rule="evenodd" clip-rule="evenodd" d="M19.9762 9.66064C18.7363 11.4429 17.6515 13.3544 16.0758 14.9042C15.8692 15.0333 15.6625 15.1883 15.4559 15.3175C14.5002 15.5499 13.7769 15.0592 13.002 14.5684C12.0205 13.9485 11.5297 12.9411 10.8064 12.0887C10.6773 11.9337 10.574 11.6754 10.3157 11.7529C10.0057 11.8562 10.1349 12.1403 10.1865 12.3728C10.5223 13.7677 11.1164 15.0333 11.8913 16.2215C14.2419 19.8119 17.6256 21.93 21.7068 23.0149C22.9983 23.3507 24.2898 23.7123 25.788 23.6865C25.1164 22.8857 24.2123 22.6533 23.4633 22.2916C22.0943 21.6459 20.467 20.5868 19.692 19.2437C18.8913 17.823 18.9171 16.1182 19.1754 14.5426C19.2529 14.0001 20.3636 9.81563 20.2345 9.76396C20.157 9.73813 20.0537 9.68647 19.9762 9.66064Z" fill="white"/>
<path fill-rule="evenodd" clip-rule="evenodd" d="M13.1828 11.1588C13.0278 11.2363 12.9762 11.3396 12.9762 11.5204C12.4079 12.8119 12.8728 13.9743 14.1127 14.4651C15.3525 14.9559 16.3341 14.5167 16.7215 13.3286C17.1607 11.9854 16.5666 10.8747 15.1717 10.5131C14.6035 10.3322 14.0869 10.4356 13.6219 10.823C13.4411 10.8488 13.2861 10.978 13.1828 11.1588Z" fill="white"/>
<path fill-rule="evenodd" clip-rule="evenodd" d="M22.6626 23.8153C24.4707 25.0293 26.2013 26.3983 28.2161 27.2507C28.4486 27.3024 28.7069 27.354 28.9394 27.4057C29.9209 27.2507 30.4117 26.5533 30.9541 25.8042C31.6515 24.8485 31.729 23.7378 32.0906 22.6788C32.1681 22.498 32.1423 22.2138 32.4006 22.188C32.7364 22.188 32.7106 22.498 32.7364 22.7046C32.9172 24.1253 32.8397 25.5201 32.5556 26.9149C31.7032 31.1253 29.3268 34.3282 25.943 36.8596C24.8582 37.6603 23.7991 38.461 22.4043 38.9777C22.7401 37.9703 23.4892 37.4278 24.0574 36.8337C25.3489 35.4389 26.5113 33.8891 26.4855 31.926C26.4596 30.1437 25.5556 28.5681 24.574 27.1474C24.3416 26.7858 22.2493 24.1769 22.4301 24.0219C22.5076 23.9444 22.5851 23.867 22.6626 23.8153Z" fill="white"/>
<path fill-rule="evenodd" clip-rule="evenodd" d="M29.5076 22.7307C29.6626 22.7307 29.7917 22.834 29.8175 22.989C30.8249 23.9705 30.8249 25.2362 29.8434 26.1403C28.8618 27.0443 27.8028 27.0185 26.9762 26.0369C26.0722 24.9521 26.2271 23.7122 27.3895 22.834C27.8544 22.4465 28.371 22.369 28.9393 22.5499C29.1718 22.524 29.3526 22.5757 29.5076 22.7307Z" fill="white"/>
<path d="M45.9613 26.9669C44.334 26.9669 42.9392 26.657 41.7252 26.0112C40.5111 25.3655 39.5038 24.5131 38.6514 23.4024L39.3746 22.705C40.2528 23.8931 41.2344 24.7455 42.3451 25.2363C43.4558 25.7529 44.6698 26.0112 46.0388 26.0112C47.5628 26.0112 48.8285 25.6496 49.81 24.9005C50.7916 24.1514 51.2824 23.1182 51.2824 21.7751C51.2824 20.7677 51.0757 19.9669 50.6624 19.3212C50.2492 18.6754 49.7325 18.1847 49.061 17.7714C48.3894 17.3839 47.6661 17.0223 46.8912 16.7382C46.0905 16.4282 45.3156 16.1441 44.5148 15.8341C43.7141 15.5241 42.9908 15.1625 42.3451 14.7234C41.6735 14.2843 41.1569 13.716 40.7436 13.0186C40.3303 12.3212 40.1237 11.443 40.1237 10.3581C40.1237 9.35071 40.3562 8.44665 40.8469 7.69758C41.3377 6.9485 42.0093 6.3544 42.8875 5.91529C43.7658 5.502 44.7731 5.26953 45.9355 5.26953C47.2787 5.26953 48.4927 5.52783 49.5517 6.04444C50.6108 6.56104 51.5148 7.31012 52.2639 8.29167L51.5407 8.98909C50.8432 8.08503 50.0425 7.41344 49.1384 6.92267C48.2344 6.45772 47.1754 6.19942 45.9355 6.19942C44.5148 6.19942 43.3783 6.56104 42.4742 7.28429C41.5702 8.00754 41.1311 9.01492 41.1311 10.3064C41.1311 11.2363 41.3377 12.0112 41.751 12.6053C42.1643 13.1994 42.6809 13.6902 43.3525 14.0776C44.0241 14.4651 44.7473 14.8009 45.5222 15.085C46.323 15.3692 47.0979 15.6533 47.8986 15.9633C48.6993 16.2732 49.4226 16.6607 50.0683 17.1256C50.7399 17.5906 51.2565 18.1588 51.6698 18.8821C52.0831 19.6053 52.2897 20.5094 52.2897 21.5943C52.2897 23.3507 51.7215 24.6939 50.5849 25.5979C49.4484 26.5278 47.8986 26.9669 45.9613 26.9669Z" fill="white"/>
<path d="M55.0794 26.657L63.6551 5.60532H64.5849L73.0831 26.657H71.9982L63.8617 6.48355H64.3266L56.1385 26.657H55.0794ZM58.644 19.7345V18.8304H69.5185V19.7345H58.644Z" fill="white"/>
<path d="M77.4742 26.657V5.60532H78.4816V26.657H77.4742ZM78.0167 26.657V25.7529H90.2344V26.657H78.0167Z" fill="white"/>
<path d="M101.729 26.9669C100.257 26.9669 98.8875 26.6828 97.6218 26.1404C96.3562 25.5979 95.2713 24.823 94.3414 23.8157C93.4115 22.8083 92.6883 21.6717 92.1717 20.3544C91.655 19.0371 91.3967 17.6164 91.3967 16.0924C91.3967 14.5684 91.655 13.1219 92.1717 11.8304C92.6883 10.5131 93.4115 9.37654 94.3414 8.39499C95.2713 7.41344 96.3562 6.66437 97.6218 6.0961C98.8617 5.55366 100.231 5.26953 101.703 5.26953C103.175 5.26953 104.544 5.55366 105.81 6.0961C107.076 6.63854 108.161 7.41344 109.09 8.39499C110.02 9.37654 110.744 10.5131 111.26 11.8304C111.777 13.1478 112.035 14.5684 112.035 16.1182C112.035 17.6422 111.777 19.0629 111.26 20.3802C110.744 21.6976 110.02 22.8599 109.09 23.8415C108.161 24.823 107.076 25.5979 105.836 26.1404C104.544 26.7086 103.201 26.9669 101.729 26.9669ZM101.651 26.0112C103.408 26.0112 104.983 25.5721 106.378 24.6939C107.773 23.8157 108.858 22.6275 109.685 21.1551C110.485 19.657 110.899 17.978 110.899 16.1182C110.899 14.7234 110.666 13.4319 110.201 12.2437C109.736 11.0555 109.09 9.99647 108.264 9.11824C107.437 8.21418 106.456 7.54259 105.345 7.02599C104.234 6.53521 102.995 6.27691 101.677 6.27691C99.9207 6.27691 98.3451 6.71603 96.9503 7.56842C95.5554 8.42082 94.4706 9.60901 93.6698 11.0813C92.8691 12.5537 92.4816 14.2326 92.4816 16.1182C92.4816 17.5131 92.7141 18.8046 93.179 20.0186C93.644 21.2326 94.2897 22.2658 95.1163 23.1699C95.9429 24.074 96.9244 24.7714 98.0351 25.2622C99.1458 25.7529 100.36 26.0112 101.651 26.0112Z" fill="white"/>
<path d="M117.098 26.657V5.60532H117.847L118.105 6.92267V26.657H117.098ZM131.64 26.657L117.64 6.9485L117.847 5.60532L131.847 25.3138L131.64 26.657ZM131.64 26.657L131.382 25.3396V5.60532H132.389V26.657H131.64Z" fill="white"/>
<path fill-rule="evenodd" clip-rule="evenodd" d="M43.0567 6.26366C42.238 6.6738 41.6213 7.22243 41.171 7.90967C40.7295 8.58359 40.5112 9.41008 40.5112 10.3579C40.5112 11.395 40.7088 12.1995 41.0769 12.8208C41.4637 13.4735 41.9408 13.9959 42.5571 14.3989L42.563 14.4028C43.1793 14.8219 43.8751 15.1707 44.6547 15.4725C45.0532 15.6268 45.4456 15.7747 45.8397 15.9234L45.8403 15.9236C46.2327 16.0715 46.627 16.2202 47.0279 16.3754C47.8278 16.6689 48.5704 17.0408 49.2546 17.4355C49.2578 17.4374 49.2609 17.4392 49.264 17.4412C49.9808 17.8822 50.5413 18.4129 50.9888 19.1121C51.4518 19.8355 51.6698 20.7139 51.6698 21.7748C51.6698 23.228 51.131 24.3796 50.0451 25.2083C48.9791 26.0218 47.6237 26.3984 46.0388 26.3984C44.6202 26.3984 43.3508 26.1305 42.1851 25.589C41.1148 25.1153 40.1716 24.3336 39.3317 23.2844L39.1738 23.4366C39.9455 24.3726 40.8428 25.1028 41.9071 25.6689C43.0547 26.2793 44.3845 26.5793 45.9613 26.5793C47.8435 26.5793 49.2949 26.1526 50.3396 25.2978L50.3438 25.2945C51.3676 24.48 51.9023 23.2609 51.9023 21.594C51.9023 20.5567 51.7046 19.7237 51.3334 19.0741C50.948 18.3995 50.4704 17.875 49.8478 17.4439L49.842 17.4398C49.2249 16.9956 48.5312 16.6233 47.7587 16.3243C46.9622 16.016 46.1909 15.7332 45.3927 15.4499L45.3888 15.4486C44.5944 15.1573 43.8509 14.8123 43.1589 14.413C42.4359 13.9959 41.8775 13.4654 41.4329 12.8263C40.9626 12.1502 40.7436 11.2914 40.7436 10.3062C40.7436 8.91567 41.2226 7.78921 42.2322 6.9815C43.2182 6.19267 44.4455 5.81173 45.9355 5.81173C47.2309 5.81173 48.3516 6.08209 49.3157 6.57787C49.3182 6.57919 49.3208 6.58053 49.3233 6.58191C50.1596 7.03588 50.9108 7.63659 51.5756 8.41688L51.7412 8.25719C51.0717 7.45331 50.2856 6.83328 49.3819 6.39243C48.3832 5.90526 47.2287 5.65674 45.9355 5.65674C44.8285 5.65674 43.8792 5.87735 43.0567 6.26366ZM42.7226 5.56447C43.6555 5.12542 44.7197 4.88184 45.9355 4.88184C47.3287 4.88184 48.6022 5.14992 49.7216 5.69597C50.8375 6.2403 51.788 7.02922 52.5719 8.05637C52.6913 8.21276 52.6745 8.43378 52.5329 8.57034L51.8096 9.26775C51.7303 9.34423 51.6222 9.38332 51.5123 9.37526C51.4024 9.3672 51.3012 9.31274 51.2339 9.2255C50.5699 8.36472 49.8117 7.72942 48.9574 7.26502C48.1141 6.83213 47.118 6.58663 45.9355 6.58663C44.5842 6.58663 43.5384 6.92893 42.7163 7.5866C41.9178 8.22538 41.5185 9.11368 41.5185 10.3062C41.5185 11.1807 41.7129 11.8718 42.0691 12.3838C42.4511 12.933 42.9259 13.384 43.5461 13.7418C44.1967 14.1171 44.899 14.4435 45.6537 14.7203C46.4563 15.0051 47.2341 15.2903 48.0385 15.6017C48.8663 15.9222 49.6181 16.3242 50.2919 16.8089C51.011 17.3074 51.5657 17.9187 52.0062 18.6896C52.4616 19.4865 52.6772 20.4616 52.6772 21.594C52.6772 23.439 52.076 24.9057 50.8282 25.8993C49.6001 26.9031 47.9526 27.3542 45.9613 27.3542C44.2836 27.3542 42.8237 27.0342 41.5432 26.3531C40.2799 25.6811 39.2299 24.7923 38.344 23.638C38.224 23.4816 38.2405 23.2601 38.3824 23.1232L39.1057 22.4258C39.186 22.3484 39.2958 22.3093 39.4069 22.3186C39.5181 22.3279 39.6199 22.3847 39.6862 22.4744C40.5355 23.6235 41.4676 24.4248 42.5017 24.8817L42.5085 24.8848C43.5632 25.3753 44.7208 25.6235 46.0388 25.6235C47.5019 25.6235 48.6779 25.2769 49.575 24.5923C50.4522 23.9228 50.8949 23.008 50.8949 21.7748C50.8949 20.8209 50.6997 20.0979 50.3361 19.5298C49.9579 18.9389 49.4866 18.4888 48.8625 18.104C48.2058 17.7254 47.5047 17.3755 46.7578 17.1017L46.7514 17.0993C46.3528 16.945 45.9605 16.797 45.5663 16.6484L45.5658 16.6482C45.1723 16.4999 44.777 16.3508 44.375 16.1952C43.5543 15.8775 42.8046 15.5038 42.1301 15.0455C41.4047 14.5705 40.8495 13.9571 40.4103 13.2159C39.9519 12.4424 39.7362 11.4905 39.7362 10.3579C39.7362 9.29086 39.9828 8.30923 40.5229 7.485C41.0534 6.67524 41.7785 6.03636 42.7143 5.5685C42.717 5.56712 42.7198 5.56578 42.7226 5.56447ZM101.703 5.65674C100.282 5.65674 98.9668 5.93064 97.7788 6.4501C96.5563 6.99924 95.5146 7.71972 94.6227 8.66122C93.7277 9.60588 93.0311 10.6998 92.5324 11.9716L92.5314 11.9741C92.0352 13.2145 91.7842 14.6114 91.7842 16.0922C91.7842 17.5715 92.0348 18.9438 92.5324 20.2127C93.031 21.4842 93.7281 22.5798 94.6261 23.5526C95.5199 24.5208 96.56 25.2635 97.7745 25.784C98.9908 26.3053 100.308 26.5793 101.729 26.5793C103.153 26.5793 104.443 26.3299 105.68 25.7855L105.681 25.7852C106.871 25.2643 107.914 24.5202 108.809 23.5748C109.702 22.632 110.4 21.513 110.9 20.2385C111.397 18.9696 111.648 17.5973 111.648 16.118C111.648 14.6124 111.397 13.2402 110.9 11.9716C110.401 10.6998 109.704 9.60588 108.809 8.66122C107.914 7.71613 106.872 6.97262 105.657 6.45198C104.441 5.9307 103.124 5.65674 101.703 5.65674ZM97.4665 5.74089C98.7578 5.17595 100.18 4.88184 101.703 4.88184C103.227 4.88184 104.648 5.17615 105.963 5.73973C107.279 6.30397 108.407 7.11027 109.372 8.12828C110.337 9.14672 111.087 10.3259 111.621 11.6887C112.157 13.0549 112.423 14.524 112.423 16.118C112.423 17.6866 112.157 19.1557 111.621 20.5214C111.088 21.8817 110.338 23.0874 109.372 24.1077C108.408 25.1254 107.28 25.9311 105.991 26.4951C104.646 27.087 103.249 27.3542 101.729 27.3542C100.205 27.3542 98.7843 27.0598 97.4692 26.4963C96.1523 25.9319 95.0227 25.1247 94.0567 24.0782C93.0949 23.0363 92.3455 21.8588 91.811 20.4956C91.2754 19.1298 91.0093 17.6608 91.0093 16.0922C91.0093 14.5253 91.2747 13.0296 91.8115 11.6873C92.3459 10.3251 93.0956 9.14637 94.0601 8.12828C95.0275 7.10713 96.1551 6.32969 97.4632 5.7424L97.4665 5.74089ZM63.2962 5.45891C63.3557 5.31302 63.4975 5.21763 63.6551 5.21763H64.585C64.7429 5.21763 64.8851 5.31355 64.9442 5.46005L73.4424 26.5117C73.4906 26.6311 73.4763 26.7667 73.4043 26.8735C73.3323 26.9802 73.2119 27.0442 73.0831 27.0442H71.9982C71.8402 27.0442 71.698 26.9482 71.6389 26.8017L68.9447 20.1217H59.2091L56.4975 26.8025C56.4381 26.9486 56.2962 27.0442 56.1385 27.0442H55.0794C54.9504 27.0442 54.8299 26.98 54.7579 26.8729C54.6859 26.7659 54.6719 26.63 54.7206 26.5106L63.2962 5.45891ZM59.5237 19.3468H68.6321L68.58 19.2176H59.5761L59.5237 19.3468ZM59.8906 18.4427H68.2675L64.0923 8.09089L59.8906 18.4427ZM63.6755 7.05741L59.0543 18.4427H58.8439L63.5791 6.81852L63.6755 7.05741ZM64.5114 7.05833L69.1031 18.4427H69.3494L64.6329 6.75897L64.5114 7.05833ZM64.366 6.09786L64.3235 5.99254H63.9156L63.8735 6.09586H64.3266C64.3399 6.09586 64.353 6.09653 64.366 6.09786ZM69.7495 20.0454C69.8264 19.9882 69.8813 19.9032 69.8995 19.8053L72.5089 26.2693H72.2597L69.7495 20.0454ZM58.2726 19.845C58.2959 19.9232 58.3432 19.9911 58.406 20.04L55.8776 26.2693H55.6556L58.2726 19.845ZM77.0868 5.60508C77.0868 5.3911 77.2603 5.21763 77.4742 5.21763H78.4816C78.6956 5.21763 78.8691 5.3911 78.8691 5.60508V25.3652H90.2344C90.4484 25.3652 90.6218 25.5387 90.6218 25.7527V26.6567C90.6218 26.8707 90.4484 27.0442 90.2344 27.0442H77.4742C77.2603 27.0442 77.0868 26.8707 77.0868 26.6567V5.60508ZM78.8691 26.2693H89.8469V26.1401H78.8691V26.2693ZM78.0942 25.3652V5.99254H77.8617V25.3975C77.9092 25.3767 77.9616 25.3652 78.0167 25.3652H78.0942ZM116.71 5.60508C116.71 5.3911 116.884 5.21763 117.098 5.21763H117.847C117.972 5.21763 118.09 5.2784 118.163 5.3807L130.995 23.4446V5.60508C130.995 5.3911 131.168 5.21763 131.382 5.21763H132.389C132.603 5.21763 132.777 5.3911 132.777 5.60508V26.6567C132.777 26.8707 132.603 27.0442 132.389 27.0442H131.64C131.515 27.0442 131.397 26.9834 131.324 26.8811L118.493 8.81727V26.6567C118.493 26.8707 118.319 27.0442 118.105 27.0442H117.098C116.884 27.0442 116.71 26.8707 116.71 26.6567V5.60508ZM117.718 7.7264V26.2693H117.485V7.39913L117.718 7.7264ZM118.493 7.47918L130.995 25.0786V24.7827L118.493 7.18319V7.47918ZM132.002 24.8627V5.99254H131.769V24.5354L132.002 24.8627ZM96.7482 7.23758C98.2067 6.34626 99.8529 5.88922 101.677 5.88922C103.045 5.88922 104.339 6.1576 105.502 6.67135L105.508 6.67443C106.657 7.20851 107.682 7.90779 108.548 8.85476C109.412 9.77268 110.082 10.8746 110.562 12.1023C111.046 13.3395 111.286 14.6794 111.286 16.118C111.286 18.0373 110.859 19.7796 110.026 21.3375C110.026 21.3388 110.025 21.3401 110.024 21.3414L110.022 21.3446C109.167 22.8677 108.039 24.1057 106.585 25.0215C105.124 25.9413 103.476 26.3984 101.651 26.3984C100.307 26.3984 99.0397 26.1294 97.8785 25.6163C96.7198 25.1043 95.6939 24.3756 94.8304 23.4311C93.971 22.4911 93.2995 21.4162 92.8172 20.1569C92.3343 18.896 92.0942 17.5572 92.0942 16.118C92.0942 14.178 92.4933 12.4335 93.3295 10.896C94.1596 9.36952 95.29 8.1287 96.7482 7.23758ZM101.677 6.66412C99.9886 6.66412 98.4834 7.08531 97.1523 7.89879C95.8208 8.71247 94.7815 9.84803 94.0102 11.2662C93.2449 12.6733 92.8691 14.2868 92.8691 16.118C92.8691 17.4685 93.0939 18.7127 93.5409 19.8798C93.9885 21.0485 94.6085 22.0401 95.4023 22.9082C96.1918 23.7718 97.129 24.4379 98.1917 24.9075C99.2519 25.376 100.412 25.6235 101.651 25.6235C103.34 25.6235 104.843 25.2025 106.172 24.3658C107.506 23.5259 108.547 22.3886 109.345 20.9687C110.112 19.5312 110.511 17.9168 110.511 16.118C110.511 14.767 110.286 13.5238 109.84 12.3846C109.391 11.237 108.771 10.2216 107.982 9.38355L107.978 9.37944C107.192 8.52009 106.256 7.87718 105.185 7.37861C104.127 6.9118 102.942 6.66412 101.677 6.66412Z" fill="white"/>
<path d="M46.8392 37.4025C46.5551 37.4025 46.271 37.3508 46.0385 37.2733C45.7802 37.1958 45.5477 37.0667 45.3669 36.9375C45.1603 36.7826 44.9794 36.6276 44.8245 36.4468L45.0828 36.1885C45.3152 36.4984 45.5735 36.7051 45.8835 36.86C46.1935 37.015 46.5293 37.0667 46.8651 37.0667C47.3042 37.0667 47.6658 36.9634 47.9241 36.7826C48.1824 36.6017 48.3115 36.3176 48.3115 35.9818C48.3115 35.6977 48.2341 35.4394 48.0791 35.2844C47.9241 35.1036 47.7175 34.9744 47.485 34.8969C47.2525 34.8195 46.9942 34.7161 46.7101 34.6386C46.4518 34.5612 46.1935 34.4578 45.9352 34.3545C45.6769 34.2512 45.496 34.0962 45.3411 33.9154C45.1861 33.7346 45.1086 33.4763 45.1086 33.1405C45.1086 32.8822 45.1861 32.6497 45.3152 32.4431C45.4444 32.2364 45.651 32.0814 45.9093 31.9523C46.1676 31.8231 46.4776 31.7715 46.8134 31.7715C47.2008 31.7715 47.5366 31.849 47.8724 31.9781C48.2082 32.1073 48.4407 32.3139 48.6215 32.5722L48.3632 32.8305C48.2082 32.6239 48.0016 32.4431 47.7175 32.3139C47.4333 32.1848 47.1234 32.1331 46.7876 32.1331C46.3484 32.1331 46.0127 32.2364 45.806 32.4172C45.5735 32.6239 45.4702 32.8564 45.4702 33.1405C45.4702 33.4246 45.5477 33.6313 45.7027 33.7862C45.8577 33.9412 46.0643 34.0704 46.2968 34.1479C46.5293 34.2254 46.7876 34.3029 47.0717 34.3803C47.3558 34.4578 47.5883 34.5353 47.8466 34.6645C48.0791 34.7678 48.2857 34.9228 48.4407 35.1294C48.5957 35.3361 48.6732 35.5944 48.6732 35.956C48.6732 36.3951 48.5182 36.7567 48.1824 37.015C47.8466 37.2733 47.4075 37.4025 46.8392 37.4025Z" fill="white"/>
<path d="M55.7505 37.4022C55.3372 37.4022 54.9498 37.2989 54.614 37.0923C54.2782 36.8856 54.0199 36.6273 53.8391 36.2657C53.6583 35.9041 53.5549 35.4908 53.5549 35.0259V31.9004H53.9166V35.0259C53.9166 35.4133 53.994 35.7749 54.149 36.0849C54.304 36.3949 54.5107 36.6273 54.7948 36.8081C55.0789 36.989 55.3889 37.0664 55.7505 37.0664C56.2929 37.0664 56.7321 36.8856 57.0678 36.4982C57.4036 36.1107 57.5586 35.6199 57.5586 35.0259V31.9004H57.9202V35.0259C57.9202 35.4908 57.8169 35.9041 57.6361 36.2657C57.4553 36.6273 57.197 36.9115 56.8612 37.0923C56.5254 37.2731 56.1638 37.4022 55.7505 37.4022Z" fill="white"/>
<path d="M63.1897 37.2991V29.1626H63.5513V33.2438L63.4222 34.5353L63.5513 35.8785V37.325H63.1897V37.2991ZM65.8502 37.4025C65.4369 37.4025 65.0753 37.325 64.7395 37.17C64.4037 37.015 64.1196 36.7825 63.8871 36.4984C63.6546 36.2143 63.4738 35.8785 63.3963 35.491V33.6571C63.4997 33.2696 63.6546 32.908 63.8871 32.6497C64.1196 32.3655 64.4295 32.1589 64.7653 32.0039C65.1011 31.8489 65.4628 31.7715 65.876 31.7715C66.3926 31.7715 66.8576 31.9006 67.245 32.1331C67.6583 32.3914 67.9683 32.7013 68.2008 33.1405C68.4332 33.5537 68.5624 34.0445 68.5624 34.587C68.5624 35.1294 68.4591 35.5943 68.2266 36.0076C67.9941 36.4209 67.6842 36.7567 67.2709 37.015C66.8318 37.2991 66.3668 37.4025 65.8502 37.4025ZM65.7727 37.0667C66.2377 37.0667 66.6509 36.9633 67.0126 36.7567C67.3742 36.5501 67.6583 36.2659 67.8391 35.8785C68.0458 35.5168 68.1491 35.0777 68.1491 34.6128C68.1491 34.122 68.0458 33.7087 67.8391 33.3213C67.6325 32.9596 67.3484 32.6497 67.0126 32.443C66.6509 32.2364 66.2635 32.1331 65.7986 32.1331C65.3336 32.1331 64.9462 32.2364 64.6104 32.443C64.2746 32.6497 63.9904 32.9338 63.8096 33.3213C63.603 33.6829 63.5255 34.122 63.5255 34.6128C63.5255 35.0777 63.6288 35.5168 63.8096 35.8785C63.9904 36.2401 64.2746 36.5501 64.6104 36.7567C64.9462 36.9633 65.3336 37.0667 65.7727 37.0667Z" fill="white"/>
<path d="M75.1234 37.4025C74.8393 37.4025 74.5551 37.3508 74.3227 37.2733C74.0644 37.1958 73.8319 37.0667 73.6511 36.9375C73.4444 36.7826 73.2636 36.6276 73.1086 36.4468L73.3669 36.1885C73.5994 36.4984 73.8577 36.7051 74.1677 36.86C74.4776 37.015 74.8134 37.0667 75.1492 37.0667C75.5883 37.0667 75.95 36.9634 76.2083 36.7826C76.4666 36.6017 76.5957 36.3176 76.5957 35.9818C76.5957 35.6977 76.5182 35.4394 76.3633 35.2844C76.2083 35.1036 76.0016 34.9744 75.7692 34.8969C75.5367 34.8195 75.2784 34.7161 74.9942 34.6386C74.7359 34.5612 74.4776 34.4578 74.2193 34.3545C73.961 34.2512 73.7802 34.0962 73.6252 33.9154C73.4703 33.7346 73.3928 33.4763 73.3928 33.1405C73.3928 32.8822 73.4703 32.6497 73.5994 32.4431C73.7286 32.2364 73.9352 32.0814 74.1935 31.9523C74.4518 31.8231 74.7618 31.7715 75.0976 31.7715C75.485 31.7715 75.8208 31.849 76.1566 31.9781C76.4924 32.1073 76.7249 32.3139 76.9057 32.5722L76.6474 32.8305C76.4924 32.6239 76.2858 32.4431 76.0016 32.3139C75.7175 32.1848 75.4075 32.1331 75.0717 32.1331C74.6326 32.1331 74.2968 32.2364 74.0902 32.4172C73.8577 32.6239 73.7544 32.8564 73.7544 33.1405C73.7544 33.4246 73.8319 33.6313 73.9869 33.7862C74.1419 33.9412 74.3485 34.0704 74.581 34.1479C74.8134 34.2254 75.0717 34.3029 75.3559 34.3803C75.64 34.4578 75.8725 34.5353 76.1308 34.6645C76.3633 34.7678 76.5699 34.9228 76.7249 35.1294C76.8799 35.3361 76.9573 35.5944 76.9573 35.956C76.9573 36.3951 76.8024 36.7567 76.4666 37.015C76.105 37.2733 75.6658 37.4025 75.1234 37.4025Z" fill="white"/>
<path d="M81.3743 32.2363V31.9263H84.5772V32.2363H81.3743ZM82.8208 37.299V29.6274H83.1824V37.299H82.8208Z" fill="white"/>
<path d="M89.5623 30.5831C89.459 30.5831 89.3815 30.5314 89.304 30.4539C89.2265 30.3764 89.2007 30.2989 89.2007 30.1956C89.2007 30.0923 89.2265 29.989 89.304 29.9373C89.3815 29.8856 89.459 29.834 89.5623 29.834C89.6656 29.834 89.7689 29.8598 89.8464 29.9373C89.9239 30.0148 89.9498 30.0923 89.9498 30.1956C89.9498 30.2989 89.9239 30.3764 89.8464 30.4539C89.7689 30.5314 89.6656 30.5831 89.5623 30.5831ZM89.3815 37.2989V31.9262H89.7431V37.2989H89.3815Z" fill="white"/>
<path d="M94.5735 32.2363V31.9263H97.7764V32.2363H94.5735ZM95.9942 37.299V29.6274H96.3558V37.299H95.9942Z" fill="white"/>
<path d="M104.647 37.4022C104.234 37.4022 103.846 37.2989 103.511 37.0923C103.175 36.8856 102.917 36.6273 102.736 36.2657C102.555 35.9041 102.452 35.4908 102.452 35.0259V31.9004H102.813V35.0259C102.813 35.4133 102.891 35.7749 103.046 36.0849C103.201 36.3949 103.407 36.6273 103.692 36.8081C103.976 36.989 104.286 37.0664 104.647 37.0664C105.19 37.0664 105.629 36.8856 105.965 36.4982C106.3 36.1107 106.455 35.6199 106.455 35.0259V31.9004H106.817V35.0259C106.817 35.4908 106.714 35.9041 106.533 36.2657C106.352 36.6273 106.094 36.9115 105.758 37.0923C105.422 37.2731 105.061 37.4022 104.647 37.4022Z" fill="white"/>
<path d="M111.492 32.2363V31.9263H114.695V32.2363H111.492ZM112.939 37.299V29.6274H113.3V37.299H112.939Z" fill="white"/>
<path d="M121.747 37.4025C121.205 37.4025 120.74 37.2734 120.301 37.0409C119.887 36.7826 119.552 36.4726 119.293 36.0335C119.035 35.6202 118.932 35.1295 118.932 34.587C118.932 34.0446 119.061 33.5796 119.293 33.1664C119.526 32.7531 119.862 32.4173 120.275 32.159C120.688 31.9007 121.153 31.7974 121.695 31.7974C122.186 31.7974 122.6 31.9007 122.987 32.1073C123.349 32.314 123.659 32.6239 123.865 33.0114C124.072 33.3988 124.175 33.838 124.175 34.3287C124.175 34.3546 124.175 34.4062 124.175 34.4837C124.175 34.5612 124.149 34.6387 124.149 34.742H119.216V34.4062H123.917L123.814 34.4837C123.839 34.0188 123.762 33.6313 123.607 33.2697C123.426 32.9081 123.194 32.6498 122.858 32.4431C122.522 32.2365 122.16 32.1332 121.695 32.1332C121.231 32.1332 120.817 32.2365 120.456 32.4431C120.094 32.6498 119.836 32.9339 119.629 33.2955C119.422 33.6571 119.319 34.0704 119.319 34.5612C119.319 35.052 119.422 35.4911 119.629 35.8785C119.836 36.2402 120.12 36.5501 120.507 36.7568C120.869 36.9634 121.308 37.0667 121.825 37.0667C122.186 37.0667 122.548 36.9892 122.858 36.8601C123.168 36.7309 123.452 36.4985 123.659 36.2402L123.917 36.4985C123.684 36.7826 123.374 37.0151 122.987 37.1701C122.574 37.325 122.186 37.4025 121.747 37.4025Z" fill="white"/>
</svg>
